<svg xmlns="http://www.w3.org/2000/svg" width="600" height="300" viewBox="0 0 600 300">
  <defs>
    <filter id="a" width="103.2%" height="104.8%" x="-1.6%" y="-1%" filterUnits="objectBoundingBox">
      <feOffset dy="2" in="SourceAlpha" result="shadowOffsetOuter1"/>
      <feColorMatrix in="shadowOffsetOuter1" result="shadowMatrixOuter1" values="0 0 0 0 0 0 0 0 0 0 0 0 0 0 0 0 0 0 0.1 0"/>
      <feMerge>
        <feMergeNode in="shadowMatrixOuter1"/>
        <feMergeNode in="SourceGraphic"/>
      </feMerge>
    </filter>
    <linearGradient id="b" x1="50%" x2="50%" y1="0%" y2="100%">
      <stop offset="0%" stop-color="#FC72C7"/>
      <stop offset="100%" stop-color="#F73187"/>
    </linearGradient>
    <linearGradient id="c" x1="50%" x2="50%" y1="0%" y2="100%">
      <stop offset="0%" stop-color="#8896DB"/>
      <stop offset="100%" stop-color="#6570B8"/>
    </linearGradient>
    <linearGradient id="d" x1="50%" x2="50%" y1="0%" y2="100%">
      <stop offset="0%" stop-color="#757CBA"/>
      <stop offset="100%" stop-color="#3B407A"/>
    </linearGradient>
  </defs>
  <g fill="none" fill-rule="evenodd" transform="translate(108 98)">
    <text fill="#FFF" font-family="SourceSansPro-SemiBold, Source Sans Pro" font-size="40" font-weight="500">
      <tspan x="152" y="67">Buildpacks</tspan> <tspan x="341.32" y="67" fill-opacity=".6">.io</tspan>
    </text>
    <g filter="url(#a)">
      <g transform="translate(64 54)">
        <path fill="#F73187" stroke="#000" stroke-opacity=".4" stroke-width=".5" d="M28.123087,13.959461 C29.2838054,14.630069 30.7142148,14.6300897 31.8749526,13.9595151 L53.873996,1.25035814 C54.5203163,0.876969796 55.253576,0.68038624 56,0.68038624 C58.3472102,0.68038624 60.25,2.58317605 60.25,4.93038624 L60.25,30.3574596 C60.25,31.8753483 59.440473,33.2780129 58.126188,34.0373815 L32.1252546,49.06022 C30.8096584,49.8203461 29.1883467,49.8203227 27.8727724,49.0601586 L1.87370576,34.0373971 C0.559480582,33.2780124 -0.25,31.8753814 -0.25,30.3575366 L-0.25,4.93061738 C-0.25,4.18415175 -0.0533945334,3.45085264 0.320033292,2.80450707 C1.49425159,0.772117582 4.09372081,0.076432374 6.12611031,1.25065067 L28.123087,13.959461 Z"/>
        <path fill="url(#b)" d="M30,17.6406351 L30,43.0690981 C30,45.2782371 31.790861,47.0690981 34,47.0690981 C34.7026041,47.0690981 35.3928136,46.8840323 36.0011681,46.5325251 L58.0011681,33.8209251 C59.2381141,33.1062177 60,31.7860786 60,30.3574981 L60,4.93050181 C60,2.72136281 58.209139,0.930501806 56,0.930501806 C55.2974637,0.930501806 54.6073184,1.11553193 53.999005,1.46697483 L31.999005,14.1771082 C30.7619614,14.8917895 30,16.2119833 30,17.6406351 Z"/>
      </g>
      <g transform="translate(32)">
        <path fill="#6570B8" stroke="#000" stroke-opacity=".4" stroke-width=".5" d="M53.8736526,3.25130333 C54.5200545,2.87778741 55.2534415,2.68113306 56,2.68113306 C58.3472102,2.68113306 60.25,4.58392287 60.25,6.93113306 L60.25,32.3594419 C60.25,33.8773406 59.4404623,35.280013 58.1261634,36.0393779 L32.12803,51.0603675 C30.8125602,51.820409 29.1914294,51.8204558 27.8759157,51.0604903 L1.87404909,36.0393467 C0.559630412,35.2800138 -0.25,33.8772743 -0.25,32.3592879 L-0.25,6.93067073 C-0.25,6.1841955 -0.053389476,5.45088729 0.320047464,4.8045359 C1.49427931,2.77215423 4.09375317,2.07648635 6.12613483,3.25071819 L28.1258653,15.9613151 C29.2866951,16.6319979 30.7172643,16.6319565 31.8780554,15.9612067 L53.8736526,3.25130333 Z"/>
        <path fill="url(#c)" d="M53.9988319,3.46747492 L31.9988319,16.1790749 C30.7618859,16.8937823 30,18.2139214 30,19.6425019 L30,45.0694982 C30,47.2786372 31.790861,49.0694982 34,49.0694982 C34.7025363,49.0694982 35.3926816,48.8844681 36.000995,48.5330252 L58.000995,35.8228918 C59.2380386,35.1082105 60,33.7880167 60,32.3593649 L60,6.93090188 C60,4.72176288 58.209139,2.93090188 56,2.93090188 C55.2973959,2.93090188 54.6071864,3.1159677 53.9988319,3.46747492 Z"/>
      </g>
      <g transform="translate(0 52)">
        <path fill="#3B407A" stroke="#000" stroke-opacity=".4" stroke-width=".5" d="M28.1240672,15.9594881 C29.2847953,16.6300793 30.7152047,16.6300793 31.8759328,15.9594881 L53.8739428,3.2505044 C54.5202758,2.87709632 55.2535552,2.68050181 56,2.68050181 C58.3472102,2.68050181 60.25,4.58329162 60.25,6.93050181 L60.25,32.3574981 C60.25,33.8753648 59.4404962,35.2780126 58.1262411,36.0373893 L32.1262411,51.0601893 C30.8106559,51.8203344 29.1893441,51.8203344 27.8737589,51.0601893 L1.8737589,36.0373893 C0.559503771,35.2780126 -0.25,33.8753648 -0.25,32.3574981 L-0.25,6.93050181 C-0.25,6.18405699 -0.0534054893,5.45077757 0.320002593,4.80444464 C1.49419154,2.77203819 4.09365072,2.07631545 6.12605717,3.2505044 L28.1240672,15.9594881 Z"/>
        <path fill="url(#d)" d="M30,19.6406351 L30,45.0690981 C30,47.2782371 31.790861,49.0690981 34,49.0690981 C34.7026041,49.0690981 35.3928136,48.8840323 36.0011681,48.5325251 L58.0011681,35.8209251 C59.2381141,35.1062177 60,33.7860786 60,32.3574981 L60,6.93050181 C60,4.72136281 58.209139,2.93050181 56,2.93050181 C55.2974637,2.93050181 54.6073184,3.11553193 53.999005,3.46697483 L31.999005,16.1771082 C30.7619614,16.8917895 30,18.2119833 30,19.6406351 Z"/>
      </g>
    </g>
  </g>
</svg>
